# xmcd
#
# Track frame offsets: 
#        182
#        17705
#        33907
#        53847
#        68852
#        86230
#        102912
#        118390
#        131262
#        143627
#        160310
#        174912
#        187302
#        200680
#        212765
#        225290
#
# Disc length: 3183 seconds
#
# Revision: 4
# Processed by: cddbd v1.5.2PL0 Copyright (c) Steve Scherf et al.
# Submitted via: ExactAudioCopy v1.0b3
#
DISCID=e10c6d10
DTITLE=Dolly Parton - The Collection
DYEAR=1993
DGENRE=Country
TTITLE0=Save the last dance for me (1980)
TTITLE1=I walk the line (1984)
TTITLE2=Turn, turn, turn (to everything there is a season) (1984)
TTITLE3=Downtown (1984)
TTITLE4=We had it all (1984)
TTITLE5=She don't love you (1984)
TTITLE6=We'll sing in the sunshine (1984)
TTITLE7=I can't help myself (1984)
TTITLE8=Elusive butterfly (1984)
TTITLE9=The great pretender (1984)
TTITLE10=Harper valley PTA (1969)
TTITLE11=D.I.V.O. R.C.E. (1969)
TTITLE12=I will always love you (1974)
TTITLE13=Jolene (1974)
TTITLE14=9 to 5 (1980)
TTITLE15=Here you come again (1977)
EXTD=
EXTT0=
EXTT1=
EXTT2=
EXTT3=
EXTT4=
EXTT5=
EXTT6=
EXTT7=
EXTT8=
EXTT9=
EXTT10=
EXTT11=
EXTT12=
EXTT13=
EXTT14=
EXTT15=
PLAYORDER=
